<?xml version="1.0" encoding="UTF-8" standalone="no"?>
<svg
   version="1.1"
   viewBox="0 0 32.414028 37.53189"
   width="32.414028"
   height="37.531891"
   filter="invert(93%) hue-rotate(180deg)"
   class="excalidraw-svg"
   id="svg2"
   xmlns="http://www.w3.org/2000/svg"
   xmlns:svg="http://www.w3.org/2000/svg">
  <!-- svg-source:excalidraw -->
  <metadata
     id="metadata1" />
  <defs
     id="defs1">
    <style
       class="style-fonts"
       id="style1" />
  </defs>
  <g
     transform="matrix(0.41516651,0,0,0.44448178,15.387345,0.34225096)"
     stroke="none"
     id="g1">
    <path
       fill="#1e1e1e"
       d="m 0.78,-0.01 q 0,0 0.01,1.12 0.01,1.13 0.01,2.56 0,1.44 -0.01,3.09 0,1.66 0.01,3.46 0.01,1.81 0.07,3.77 0.06,1.96 0.15,4.1 0.09,2.13 0.16,4.4 0.07,2.28 0.14,4.64 0.07,2.36 0.17,4.65 0.1,2.29 0.18,4.31 0.08,2.02 0.13,4.06 0.05,2.04 0.07,3.6 0.02,1.56 0.03,2.95 0.01,1.38 0.02,2.72 0,1.34 0,2.59 0,1.24 0.02,2.32 0.01,1.08 0.06,1.95 0.04,0.87 0.09,1.6 0.05,0.72 0.09,1.38 0.03,0.66 0.06,1.32 0.03,0.67 0.06,1.3 0.02,0.64 0.08,1.71 0.06,1.08 0.06,1.61 0,0.54 -0.09,1.17 -0.09,0.62 -0.17,1.2 -0.09,0.57 -0.13,1.11 -0.04,0.53 -0.05,1.09 -0.01,0.55 -0.01,1.11 0,0.56 -0.01,1.11 -0.01,0.55 -0.04,1.45 -0.02,0.9 0,1.66 0.02,0.76 0.09,1.48 0.07,0.73 0.19,2.72 0.12,2 -0.03,2.18 Q 2.03,81.67 1.82,81.8 1.62,81.93 1.38,81.99 1.14,82.05 0.89,82.03 0.65,82 0.43,81.9 0.2,81.8 0.02,81.64 -0.15,81.47 -0.27,81.26 -0.39,81.04 -0.43,80.8 q -0.05,-0.24 -0.01,-0.48 0.04,-0.25 0.15,-0.46 0.11,-0.22 0.28,-0.4 0.17,-0.17 0.39,-0.27 0.22,-0.11 0.46,-0.14 0.25,-0.03 0.49,0.02 0.24,0.05 0.45,0.17 0.21,0.12 0.38,0.31 0.16,0.18 0.25,0.41 0.1,0.22 0.12,0.47 0.01,0.24 -0.05,0.48 -0.06,0.24 -0.2,0.44 -0.13,0.21 -0.32,0.36 -0.2,0.15 -0.43,0.24 Q 1.3,82.03 1.06,82.03 0.81,82.04 0.58,81.96 0.34,81.89 0.14,81.74 -0.04,81.6 -0.18,81.4 -0.33,81.19 -0.4,80.96 q -0.06,-0.24 -0.06,-0.48 0.01,-0.25 0.1,-0.48 0.09,-0.23 0.09,-0.23 0,0 -0.35,-1.5 -0.36,-1.5 -0.35,-2.35 0.02,-0.84 0.07,-1.72 0.05,-0.87 0.13,-1.84 0.07,-0.97 0.09,-1.56 0.02,-0.59 0.06,-1.21 0.03,-0.63 0.1,-1.25 0.08,-0.63 0.19,-1.21 0.11,-0.58 0.27,-1.52 0.15,-0.95 0.21,-2.02 0.06,-1.08 0.1,-1.72 0.03,-0.64 0.07,-1.32 0.04,-0.67 0.1,-1.31 Q 0.48,58.61 0.53,57.88 0.57,57.16 0.6,56.29 0.64,55.43 0.62,54.34 0.61,53.25 0.61,52.01 0.6,50.76 0.6,49.43 0.6,48.09 0.59,46.71 0.58,45.33 0.55,43.78 0.53,42.22 0.48,40.19 0.43,38.17 0.35,36.15 0.26,34.13 0.16,31.83 0.05,29.53 -0.01,27.17 -0.08,24.81 -0.15,22.55 -0.23,20.28 -0.33,18.14 -0.43,16 -0.5,14.02 -0.56,12.04 -0.59,10.23 -0.61,8.43 -0.62,6.77 -0.64,5.12 -0.66,3.7 -0.69,2.28 -0.73,1.15 -0.78,0.01 -0.77,-0.07 q 0.01,-0.09 0.04,-0.18 0.03,-0.09 0.09,-0.17 0.05,-0.08 0.12,-0.14 0.07,-0.07 0.15,-0.11 0.08,-0.05 0.17,-0.07 0.09,-0.03 0.19,-0.03 0.08,0 0.17,0.02 0.09,0.02 0.18,0.06 0.08,0.04 0.15,0.1 0.08,0.06 0.13,0.14 0.06,0.08 0.09,0.16 0.04,0.09 0.05,0.18 0.02,0.1 0.02,0.1 z"
       id="path1" />
  </g>
  <g
     transform="matrix(0.41516651,0,0,0.44448178,0.37088208,35.99843)"
     stroke="none"
     id="g2">
    <path
       fill="#1e1e1e"
       d="m 0.07,-0.89 q 0,0 0.95,0.09 0.95,0.09 1.98,0.17 1.03,0.07 7.45,0.23 6.42,0.16 10.09,0.26 3.67,0.1 6.47,0.15 2.8,0.07 4.68,0.11 1.89,0.05 3.19,0.1 1.3,0.05 2.19,0.06 0.88,0.01 1.48,0.01 0.6,-0.01 1.22,0 0.62,0.01 1.46,0.04 0.85,0.02 1.95,0.04 1.11,0.03 1.78,0.05 0.67,0.02 1.37,0.04 0.69,0.01 1.63,0.07 0.94,0.07 1.66,0.07 0.72,0 1.31,-0.01 0.59,-0.02 1.44,-0.06 0.85,-0.04 1.52,-0.04 0.68,-0.01 1.22,-0.04 0.55,-0.04 1.44,-0.05 0.88,-0.01 1.43,0.01 0.54,0.01 1.08,0.02 0.54,0.01 1.12,0.01 0.58,0.01 1.23,0.04 0.64,0.02 1.27,0.04 0.62,0.01 1.23,0.02 0.6,0.01 1.22,0.01 0.61,0.01 1.22,0.01 0.61,0.01 1.18,0.01 0.57,0 1.11,-0.01 0.54,0 1.64,-0.01 1.09,0 3,-0.2 1.91,-0.2 2.15,-0.25 0.23,-0.05 0.47,-0.02 0.23,0.03 0.45,0.13 0.21,0.1 0.39,0.27 0.17,0.16 0.28,0.37 0.11,0.22 0.14,0.45 0.04,0.24 0,0.47 -0.04,0.24 -0.15,0.45 -0.12,0.21 -0.29,0.37 -0.18,0.16 -0.39,0.26 -0.22,0.1 -0.46,0.12 Q 75.63,2.99 75.4,2.94 75.17,2.89 74.97,2.76 74.76,2.64 74.61,2.46 74.46,2.27 74.37,2.05 74.29,1.83 74.27,1.59 74.26,1.35 74.33,1.12 74.4,0.89 74.53,0.7 74.67,0.5 74.86,0.36 75.05,0.22 75.28,0.14 75.5,0.07 75.74,0.07 q 0.24,0 0.46,0.08 0.23,0.08 0.42,0.22 0.19,0.15 0.32,0.35 0.13,0.2 0.19,0.43 0.06,0.23 0.05,0.47 -0.02,0.23 -0.11,0.45 -0.09,0.22 -0.24,0.4 -0.16,0.19 -0.36,0.31 -0.21,0.12 -0.21,0.12 0,0 -2.45,0.27 -2.44,0.28 -3.54,0.27 -1.09,0 -1.63,-0.01 -0.54,0 -1.11,0 -0.57,0 -1.19,0 -0.61,0 -1.22,0.01 -0.62,0 -1.23,0 -0.62,0 -1.26,0.01 -0.65,0 -1.27,-0.01 -0.61,0 -1.2,0 Q 59.56,3.45 58.5,3.43 57.43,3.41 56.54,3.4 55.65,3.39 55.11,3.35 54.57,3.32 53.89,3.22 53.22,3.12 52.36,3.07 51.5,3.02 50.91,3 50.31,2.98 49.59,2.97 48.86,2.95 47.92,2.98 46.98,3.01 46.26,3 45.53,2.99 44.86,2.96 44.18,2.93 43.55,2.89 42.92,2.85 42.38,2.8 41.83,2.74 40.94,2.53 40.05,2.32 39.53,2.17 39.01,2.01 38.44,1.91 37.87,1.81 37,1.73 36.13,1.65 34.84,1.61 33.55,1.58 31.67,1.55 29.78,1.52 26.98,1.49 24.17,1.45 20.51,1.38 16.84,1.31 10.4,1.2 3.96,1.09 2.88,1.07 1.81,1.05 0.86,0.97 -0.07,0.89 -0.18,0.87 -0.29,0.85 -0.38,0.8 -0.48,0.75 -0.57,0.68 -0.65,0.61 -0.71,0.53 -0.78,0.44 -0.82,0.34 -0.86,0.24 -0.88,0.13 -0.9,0.02 -0.89,-0.07 q 0.01,-0.11 0.05,-0.22 0.03,-0.1 0.09,-0.19 0.06,-0.09 0.14,-0.16 0.08,-0.08 0.17,-0.13 0.1,-0.06 0.2,-0.09 0.11,-0.03 0.22,-0.03 0.09,0 0.09,0 z"
       id="path2" />
  </g>
</svg>
