<?xml version="1.0" encoding="UTF-8" standalone="no"?>
<svg
   version="1.1"
   viewBox="0 0 19.832411 37.532001"
   width="19.832411"
   height="37.532001"
   filter="invert(93%) hue-rotate(180deg)"
   class="excalidraw-svg"
   id="svg2"
   xmlns="http://www.w3.org/2000/svg"
   xmlns:svg="http://www.w3.org/2000/svg">
  <!-- svg-source:excalidraw -->
  <metadata
     id="metadata1" />
  <defs
     id="defs1">
    <style
       class="style-fonts"
       id="style1" />
  </defs>
  <g
     stroke-linecap="round"
     transform="matrix(0.46598358,0,0,0.46598358,0.53861564,-0.51258207)"
     id="g1">
    <path
       d="m 28.35,3.41 c 3.95,2.89 7.6,10.87 9.35,18.56 1.75,7.68 2.08,19.29 1.16,27.55 -0.92,8.27 -3.26,17.07 -6.68,22.05 -3.42,4.99 -9.6,8.17 -13.85,7.85 C 14.08,79.11 9.83,75.35 6.68,69.68 3.54,64.01 0.06,53.98 -0.54,45.42 -1.14,36.86 0.69,25.43 3.06,18.31 5.43,11.18 8.93,4.37 13.7,2.66 18.47,0.96 28.38,6.44 31.69,8.1 35,9.77 33.94,12.11 33.58,12.66 M 26.27,1.6 c 3.99,1.83 8.38,9.83 10.8,16.97 2.42,7.15 4.35,17.17 3.71,25.89 -0.63,8.73 -4.14,20.37 -7.51,26.48 -3.37,6.11 -8.44,9.85 -12.7,10.18 C 16.3,81.44 11.19,78.44 7.68,72.88 4.18,67.32 0.27,56.38 -0.46,47.73 -1.18,39.07 1.15,28.38 3.33,20.95 5.5,13.51 9,6.08 12.59,3.12 16.18,0.17 22.86,3.05 24.87,3.21 c 2.01,0.17 -0.39,0.46 -0.2,0.88"
       stroke="#1e1e1e"
       stroke-width="1"
       fill="none"
       id="path1" />
  </g>
  <g
     transform="matrix(0.46598358,0,0,0.46598358,9.883698,17.555133)"
     stroke="none"
     id="g2">
    <path
       fill="#1e1e1e"
       d="m 0.91,0.85 q 0,0 -0.85,0.8 -0.84,0.79 -1.78,0.54 -0.94,-0.24 -0.64,-0.78 0.3,-0.54 1.07,-0.83 0.76,-0.29 1.12,0.21 0.35,0.5 0.7,0.9 0.35,0.4 0.01,-1.38 -0.35,-1.76 -0.15,-1.82 0.21,-0.06 0.42,-0.08 0.21,-0.01 0.42,0.03 0.2,0.04 0.39,0.13 0.2,0.09 0.36,0.22 0.17,0.13 0.3,0.3 0.13,0.17 0.21,0.36 0.09,0.19 0.12,0.4 0.04,0.2 0.02,0.41 Q 2.62,0.47 2.56,0.67 2.49,0.87 2.38,1.05 2.27,1.23 2.12,1.38 1.97,1.53 1.79,1.64 1.61,1.75 0.4,1.16 -0.79,0.58 -0.81,0.29 q -0.03,-0.28 0.04,-0.54 0.06,-0.28 0.21,-0.52 0.16,-0.24 0.38,-0.42 0.21,-0.18 0.47,-0.28 0.27,-0.1 0.55,-0.11 0.28,-0.01 0.56,0.07 0.27,0.09 0.5,0.25 0.23,0.16 0.4,0.39 0.16,0.23 0.25,0.5 Q 2.63,-0.1 2.63,0.18 2.62,0.46 2.53,0.73 2.43,1 2.25,1.22 2.08,1.44 1.84,1.59 1.6,1.75 1.33,1.82 1.05,1.89 0.77,1.87 0.49,1.85 0.22,1.74 -0.03,1.62 -0.24,1.44 -0.45,1.25 -0.59,1 -0.73,0.76 -0.79,0.48 -0.84,0.2 -0.81,-0.07 q 0.04,-0.28 0.16,-0.54 0.13,-0.25 0.33,-0.45 0.2,-0.21 0.44,-0.33 0.25,-0.13 0.53,-0.17 0.29,-0.04 0.56,0.01 0.28,0.05 0.53,0.19 0.25,0.14 0.44,0.35 0.19,0.21 -0.9,-0.12 -1.09,-0.32 -0.89,-0.38 0.21,-0.06 0.42,-0.08 0.21,-0.01 0.41,0.03 0.21,0.04 0.4,0.13 0.2,0.09 0.36,0.22 0.17,0.13 0.3,0.3 0.13,0.17 0.21,0.36 0.09,0.19 0.12,0.4 0.04,0.2 0.02,0.41 Q 2.62,0.47 2.56,0.67 2.49,0.87 2.38,1.05 2.27,1.23 2.12,1.38 1.97,1.53 1.79,1.64 1.61,1.75 1.85,3.23 2.1,4.71 1.54,4.91 0.99,5.1 0.37,5.05 -0.25,5 -0.84,4.68 -1.42,4.36 -1.83,3.82 -2.24,3.27 -2.39,2.63 -2.55,1.98 -2.5,1.39 q 0.05,-0.59 0.22,-1.1 0.17,-0.5 0.58,-1.05 0.4,-0.55 1.02,-0.7 0.62,-0.16 1.47,0.23 0.86,0.38 0.96,1.24 Q 1.85,0.88 1.6,1.56 1.35,2.24 0.94,2.69 0.52,3.14 -0.1,3.23 -0.73,3.32 -1.28,3.15 -1.83,2.98 -2.37,2.32 -2.91,1.67 -3.09,0.75 q -0.17,-0.9 0.1,-1.5 0.27,-0.6 1.28,-0.96 1,-0.35 1.6,0.03 0.58,0.39 0.85,1.28 Q 1.01,0.48 0.77,1.14 0.54,1.79 0.08,2.43 -0.36,3.07 -1.04,3.48 -1.72,3.9 -2.53,3.47 -3.35,3.04 -3.26,2.43 q 0.1,-0.62 0.49,-1.06 0.38,-0.43 1.12,-1.33 0.74,-0.89 0.85,-0.99 0.12,-0.1 0.26,-0.16 0.13,-0.07 0.28,-0.1 0.15,-0.03 0.29,-0.03 0.15,0 0.3,0.04 0.14,0.04 0.27,0.12 0.14,0.07 0.25,0.18 0.11,0.1 0.19,0.23 0.08,0.12 0.13,0.27 0.05,0.14 0.07,0.29 Q 1.25,0.03 1.23,0.18 1.21,0.33 1.15,0.47 1.09,0.61 1,0.73 Z"
       id="path2" />
  </g>
</svg>
