<?xml version="1.0" encoding="UTF-8" standalone="no"?>
<svg
   version="1.1"
   viewBox="0 0 10.717155 37.532"
   width="10.717155"
   height="37.532001"
   filter="invert(93%) hue-rotate(180deg)"
   class="excalidraw-svg"
   id="svg1"
   xmlns="http://www.w3.org/2000/svg"
   xmlns:svg="http://www.w3.org/2000/svg">
  <!-- svg-source:excalidraw -->
  <metadata
     id="metadata1" />
  <defs
     id="defs1">
    <style
       class="style-fonts"
       id="style1" />
  </defs>
  <g
     transform="matrix(0.47345101,0,0,0.47345101,0.49002179,9.8392589)"
     stroke="none"
     id="g1">
    <path
       fill="#1e1e1e"
       d="m -0.77,-0.71 q 0,0 0.78,-0.77 0.79,-0.77 1.5,-1.46 0.71,-0.68 1.44,-1.36 0.74,-0.67 1.5,-1.34 0.75,-0.67 1.47,-1.31 0.72,-0.63 1.33,-1.21 0.61,-0.58 1.09,-1.11 0.49,-0.53 0.88,-1 0.4,-0.48 0.74,-0.93 0.34,-0.46 0.72,-0.93 0.37,-0.46 0.89,-1.05 0.52,-0.59 1.33,-1.56 0.81,-0.97 1.24,-1.47 0.43,-0.51 0.89,-1.1 0.46,-0.6 0.77,-1.15 0.32,-0.54 0.55,-1.06 0.23,-0.51 0.34,-0.66 0.11,-0.15 0.25,-0.26 0.14,-0.12 0.31,-0.2 0.16,-0.07 0.34,-0.11 0.18,-0.04 0.36,-0.03 0.18,0 0.36,0.06 0.18,0.05 0.33,0.14 0.16,0.09 0.29,0.21 0.14,0.13 0.23,0.28 0.1,0.16 0.16,0.33 0.06,0.17 0.07,0.35 0.02,0.19 -0.01,0.37 -0.03,0.18 -0.1,0.34 -0.07,0.17 -0.09,-0.61 -0.01,-0.77 0.3,0.3 0.31,1.07 0.38,1.89 0.08,0.82 0.14,2.31 0.06,1.48 0.11,2.93 0.05,1.44 0.07,2.84 0.03,1.41 0.05,2.78 0.02,1.37 0.03,2.72 0,1.36 0,2.7 -0.01,1.33 0,2.65 0,1.31 0.02,2.62 0.03,1.3 0.06,2.52 0.04,1.22 0.06,2.31 0.03,1.09 0.05,2.26 0.03,1.17 0.09,1.88 0.07,0.71 0.1,1.55 0.04,0.84 0.08,1.55 0.04,0.71 0.06,1.42 0.01,0.71 0.03,1.44 0.02,0.73 0.02,1.51 0.01,0.77 0.02,1.57 0,0.8 0.02,1.53 0.01,0.74 0.02,1.46 0.01,0.72 0.02,1.45 0.01,0.73 -0.02,1.67 -0.03,0.93 -0.01,1.71 0.02,0.79 0.09,1.98 0.08,1.2 0.1,1.79 0.02,0.58 -0.16,3.01 -0.19,2.42 -0.3,3.71 -0.12,1.28 -0.18,2.24 -0.05,0.95 -0.01,2.02 0.04,1.08 0.07,1.89 0.04,0.81 0.08,1.62 0.04,0.8 0.09,1.45 0.06,0.66 0.28,1.15 0.22,0.48 0.3,1.14 0.09,0.67 0.23,2.66 0.14,1.99 0.1,2.25 -0.04,0.25 -0.16,0.48 -0.12,0.23 -0.3,0.41 -0.19,0.17 -0.42,0.28 -0.23,0.11 -0.49,0.14 -0.26,0.03 -0.51,-0.02 -0.25,-0.06 -0.47,-0.19 -0.22,-0.13 -0.39,-0.32 -0.17,-0.2 -0.27,-0.44 -0.09,-0.24 -0.11,-0.49 -0.01,-0.26 0.05,-0.51 0.07,-0.25 0.21,-0.46 0.15,-0.22 0.35,-0.37 0.2,-0.16 0.45,-0.24 0.24,-0.09 0.5,-0.09 0.26,0 0.5,0.08 0.25,0.08 0.45,0.23 0.21,0.16 0.35,0.37 0.15,0.21 0.22,0.46 0.07,0.25 0.06,0.51 -0.01,0.25 -0.11,0.49 -0.09,0.24 -0.26,0.44 -0.16,0.2 -0.38,0.33 -0.22,0.14 -0.47,0.19 -0.25,0.06 -0.51,0.03 -0.26,-0.02 -0.49,-0.13 -0.24,-0.1 -0.42,-0.28 -0.19,-0.18 -0.31,-0.4 -0.13,-0.23 -0.17,-0.48 -0.04,-0.26 -0.04,-0.26 0,0 -0.11,-1.8 -0.1,-1.8 -0.03,-2.42 0.06,-0.61 -0.15,-1.32 -0.2,-0.71 -0.18,-1.4 0.02,-0.69 0.08,-1.54 0.06,-0.85 0.15,-1.65 0.09,-0.8 0.15,-1.33 0.06,-0.53 0.12,-1.07 0.06,-0.54 0.08,-1.5 0.03,-0.96 0.04,-2.25 0,-1.29 0.04,-3.65 0.04,-2.37 0.06,-2.95 0.02,-0.58 0.02,-1.24 0.01,-0.66 0.02,-1.19 0.01,-0.54 0,-1.34 -0.01,-0.8 -0.04,-1.73 -0.03,-0.94 -0.02,-1.67 0.01,-0.73 0.02,-1.45 0.01,-0.72 0.03,-1.46 0.01,-0.74 0.02,-1.53 0.01,-0.8 0.02,-1.58 0.01,-0.79 0.04,-1.53 0.03,-0.74 0.07,-1.42 0.05,-0.69 0.08,-1.4 0.04,-0.71 0.06,-1.54 0.03,-0.84 0.07,-1.54 0.04,-0.71 0.01,-1.88 Q 19.06,10.39 19.02,9.3 18.98,8.22 18.92,7 18.87,5.77 18.82,4.46 18.77,3.15 18.73,1.83 18.69,0.51 18.65,-0.81 q -0.04,-1.32 -0.11,-2.66 -0.07,-1.34 -0.18,-2.69 -0.1,-1.36 -0.24,-2.72 -0.14,-1.37 -0.34,-2.77 -0.2,-1.4 -0.45,-2.83 -0.26,-1.42 -0.43,-2.64 -0.18,-1.22 -0.25,-2.07 -0.07,-0.84 0.04,-0.99 0.11,-0.15 0.25,-0.26 0.14,-0.12 0.31,-0.2 0.16,-0.07 0.34,-0.11 0.18,-0.04 0.36,-0.03 0.18,0 0.36,0.06 0.18,0.05 0.33,0.14 0.16,0.09 0.29,0.21 0.14,0.13 0.23,0.28 0.1,0.16 0.16,0.33 0.06,0.17 0.07,0.35 0.02,0.18 -0.01,0.37 -0.03,0.18 -0.1,0.34 -0.07,0.17 -0.21,0.37 -0.15,0.19 -0.45,0.66 -0.29,0.46 -0.72,0.97 -0.42,0.5 -0.97,1.05 -0.54,0.55 -0.98,1.03 -0.45,0.49 -1.3,1.42 -0.85,0.94 -1.36,1.52 -0.52,0.59 -0.92,1.01 -0.41,0.42 -0.83,0.87 -0.42,0.45 -0.89,0.9 -0.47,0.45 -1.03,0.97 -0.56,0.52 -1.21,1.07 -0.64,0.55 -1.35,1.18 -0.7,0.62 -1.43,1.31 Q 4.9,-3.68 4.21,-3 3.51,-2.33 2.85,-1.65 2.19,-0.97 1.48,-0.12 0.77,0.71 0.67,0.79 0.57,0.87 0.46,0.93 0.35,0.98 0.22,1.01 0.1,1.04 -0.02,1.04 -0.14,1.03 -0.27,1 -0.39,0.97 -0.5,0.91 -0.61,0.85 -0.7,0.76 -0.8,0.67 -0.87,0.57 -0.94,0.46 -0.98,0.34 -1.02,0.22 -1.03,0.1 q -0.01,-0.12 0,-0.24 0.02,-0.13 0.07,-0.25 0.05,-0.11 0.12,-0.22 z"
       id="path1" />
  </g>
</svg>
