<svg version="1.1"
    xmlns="http://www.w3.org/2000/svg" viewBox="0 0 42 82" width="42" height="82" filter="invert(93%) hue-rotate(180deg)" class="excalidraw-svg">    <!-- svg-source:excalidraw -->
    <metadata></metadata>
    <defs>
        <style class="style-fonts">
        </style>
    </defs>
    <g stroke-linecap="round" transform="translate(1 1) rotate(0 20 40)">
        <path d="M28.35 3.41 C32.3 6.3, 35.95 14.28, 37.7 21.97 C39.45 29.65, 39.78 41.26, 38.86 49.52 C37.94 57.79, 35.6 66.59, 32.18 71.57 C28.76 76.56, 22.58 79.74, 18.33 79.42 C14.08 79.11, 9.83 75.35, 6.68 69.68 C3.54 64.01, 0.06 53.98, -0.54 45.42 C-1.14 36.86, 0.69 25.43, 3.06 18.31 C5.43 11.18, 8.93 4.37, 13.7 2.66 C18.47 0.96, 28.38 6.44, 31.69 8.1 C35 9.77, 33.94 12.11, 33.58 12.66 M26.27 1.6 C30.26 3.43, 34.65 11.43, 37.07 18.57 C39.49 25.72, 41.42 35.74, 40.78 44.46 C40.15 53.19, 36.64 64.83, 33.27 70.94 C29.9 77.05, 24.83 80.79, 20.57 81.12 C16.3 81.44, 11.19 78.44, 7.68 72.88 C4.18 67.32, 0.27 56.38, -0.46 47.73 C-1.18 39.07, 1.15 28.38, 3.33 20.95 C5.5 13.51, 9 6.08, 12.59 3.12 C16.18 0.17, 22.86 3.05, 24.87 3.21 C26.88 3.38, 24.48 3.67, 24.67 4.09" stroke="#1e1e1e" stroke-width="1" fill="none"></path>
    </g>
    <g transform="translate(21.054531427358484 39.77328687422505) rotate(0 -0.5110324164860458 1.455409478680167)" stroke="none">
        <path fill="#1e1e1e" d="M 0.91,0.85 Q 0.91,0.85 0.06,1.65 -0.78,2.44 -1.72,2.19 -2.66,1.95 -2.36,1.41 -2.06,0.87 -1.29,0.58 -0.53,0.29 -0.17,0.79 0.18,1.29 0.53,1.69 0.88,2.09 0.54,0.31 0.19,-1.45 0.39,-1.51 0.60,-1.57 0.81,-1.59 1.02,-1.60 1.23,-1.56 1.43,-1.52 1.62,-1.43 1.82,-1.34 1.98,-1.21 2.15,-1.08 2.28,-0.91 2.41,-0.74 2.49,-0.55 2.58,-0.36 2.61,-0.15 2.65,0.05 2.63,0.26 2.62,0.47 2.56,0.67 2.49,0.87 2.38,1.05 2.27,1.23 2.12,1.38 1.97,1.53 1.79,1.64 1.61,1.75 0.40,1.16 -0.79,0.58 -0.81,0.29 -0.84,0.01 -0.77,-0.25 -0.71,-0.53 -0.56,-0.77 -0.40,-1.01 -0.18,-1.19 0.03,-1.37 0.29,-1.47 0.56,-1.57 0.84,-1.58 1.12,-1.59 1.40,-1.51 1.67,-1.42 1.90,-1.26 2.13,-1.10 2.30,-0.87 2.46,-0.64 2.55,-0.37 2.63,-0.10 2.63,0.18 2.62,0.46 2.53,0.73 2.43,1.00 2.25,1.22 2.08,1.44 1.84,1.59 1.60,1.75 1.33,1.82 1.05,1.89 0.77,1.87 0.49,1.85 0.22,1.74 -0.03,1.62 -0.24,1.44 -0.45,1.25 -0.59,1.00 -0.73,0.76 -0.79,0.48 -0.84,0.20 -0.81,-0.07 -0.77,-0.35 -0.65,-0.61 -0.52,-0.86 -0.32,-1.06 -0.12,-1.27 0.12,-1.39 0.37,-1.52 0.65,-1.56 0.94,-1.60 1.21,-1.55 1.49,-1.50 1.74,-1.36 1.99,-1.22 2.18,-1.01 2.37,-0.80 1.28,-1.13 0.19,-1.45 0.39,-1.51 0.60,-1.57 0.81,-1.59 1.02,-1.60 1.22,-1.56 1.43,-1.52 1.62,-1.43 1.82,-1.34 1.98,-1.21 2.15,-1.08 2.28,-0.91 2.41,-0.74 2.49,-0.55 2.58,-0.36 2.61,-0.15 2.65,0.05 2.63,0.26 2.62,0.47 2.56,0.67 2.49,0.87 2.38,1.05 2.27,1.23 2.12,1.38 1.97,1.53 1.79,1.64 1.61,1.75 1.85,3.23 2.10,4.71 1.54,4.91 0.99,5.10 0.37,5.05 -0.25,5.00 -0.84,4.68 -1.42,4.36 -1.83,3.82 -2.24,3.27 -2.39,2.63 -2.55,1.98 -2.50,1.39 -2.45,0.80 -2.28,0.29 -2.11,-0.21 -1.70,-0.76 -1.30,-1.31 -0.68,-1.46 -0.06,-1.62 0.79,-1.23 1.65,-0.85 1.75,0.01 1.85,0.88 1.60,1.56 1.35,2.24 0.94,2.69 0.52,3.14 -0.10,3.23 -0.73,3.32 -1.28,3.15 -1.83,2.98 -2.37,2.32 -2.91,1.67 -3.09,0.75 -3.26,-0.15 -2.99,-0.75 -2.72,-1.35 -1.71,-1.71 -0.71,-2.06 -0.11,-1.68 0.47,-1.29 0.74,-0.40 1.01,0.48 0.77,1.14 0.54,1.79 0.08,2.43 -0.36,3.07 -1.04,3.48 -1.72,3.90 -2.53,3.47 -3.35,3.04 -3.26,2.43 -3.16,1.81 -2.77,1.37 -2.39,0.94 -1.65,0.04 -0.91,-0.85 -0.80,-0.95 -0.68,-1.05 -0.54,-1.11 -0.41,-1.18 -0.26,-1.21 -0.11,-1.24 0.03,-1.24 0.18,-1.24 0.33,-1.20 0.47,-1.16 0.60,-1.08 0.74,-1.01 0.85,-0.90 0.96,-0.80 1.04,-0.67 1.12,-0.55 1.17,-0.40 1.22,-0.26 1.24,-0.11 1.25,0.03 1.23,0.18 1.21,0.33 1.15,0.47 1.09,0.61 1.00,0.73 0.91,0.85 0.91,0.85 L 0.91,0.85 Z"></path>
    </g>
</svg>